<svg width="20" height="20" viewBox="0 0 20 20" fill="none" xmlns="http://www.w3.org/2000/svg">
<circle cx="10" cy="10" r="10" fill="#585DE4"/>
<path fill-rule="evenodd" clip-rule="evenodd" d="M8.81543 9.39469C8.72486 9.29935 8.70828 9.07791 8.8253 8.81501C9.26403 7.64226 9.32355 7.42464 9.0424 7.1287L7.23774 5.22905C6.89116 4.86423 6.34048 4.9571 5.99998 5.31553C4.66667 6.71901 4.66667 8.98439 5.99998 10.3879L9.37117 13.9365C10.7183 15.3545 12.9135 15.3545 14.2606 13.9365C14.5899 13.5898 14.6715 13.054 14.3427 12.708L12.5381 10.8083C12.2356 10.49 12.0301 10.5522 10.9028 11.0185C10.6429 11.1454 10.4646 11.1306 10.3854 11.0473L8.81543 9.39469ZM13.5056 13.2787C12.5509 14.2506 11.0391 14.2403 10.0962 13.2477L6.72498 9.69912C5.78011 8.70453 5.75883 7.09624 6.66113 6.074L8.164 7.65597L8.16054 7.66875C8.11337 7.8412 8.02624 8.09881 7.90007 8.43684C7.64291 9.01226 7.6917 9.66372 8.09043 10.0834L9.66038 11.736C10.0705 12.1677 10.7214 12.2217 11.315 11.9289C11.5902 11.8163 11.8236 11.7283 11.9848 11.6778L13.5056 13.2787Z" fill="white"/>
<path d="M10.85 9.09999C10.85 8.87907 10.6709 8.69999 10.45 8.69999C10.1739 8.69999 9.95 8.47613 9.95 8.19999C9.95 7.92384 10.1739 7.69999 10.45 7.69999C11.2232 7.69999 11.85 8.32679 11.85 9.09999C11.85 9.37613 11.6261 9.59999 11.35 9.59999C11.0739 9.59999 10.85 9.37613 10.85 9.09999Z" fill="white"/>
<path d="M10.45 7.34999C11.4165 7.34999 12.2 8.13349 12.2 9.09999C12.2 9.37613 12.4239 9.59999 12.7 9.59999C12.9761 9.59999 13.2 9.37613 13.2 9.09999C13.2 7.5812 11.9688 6.34999 10.45 6.34999C10.1739 6.34999 9.95 6.57384 9.95 6.84999C9.95 7.12613 10.1739 7.34999 10.45 7.34999Z" fill="white"/>
<path d="M13.55 9.09999C13.55 7.3879 12.1621 5.99998 10.45 5.99998C10.1739 5.99998 9.95 5.77613 9.95 5.49998C9.95 5.22384 10.1739 4.99998 10.45 4.99998C12.7144 4.99998 14.55 6.83562 14.55 9.09999C14.55 9.37613 14.3261 9.59999 14.05 9.59999C13.7739 9.59999 13.55 9.37613 13.55 9.09999Z" fill="white"/>
</svg>
